<svg xmlns="http://www.w3.org/2000/svg" xmlns:xlink="http://www.w3.org/1999/xlink" viewBox="0 0 1200 900">
  <defs>
    <style>
      .cls-1 {
        clip-path: url(#clip-Omar_Dsoky_-_ui_-_00459_2);
      }

      .cls-2 {
        fill: #e5e5e5;
        font-size: 359px;
        font-family: Museo900-Regular, "Museo 900";
      }

      .cls-3 {
        fill: url(#linear-gradient);
      }

      .cls-4 {
        fill: #6c63ff;
      }

      .cls-5 {
        fill: #ffd5d8;
      }

      .cls-6 {
        opacity: 0.1;
      }

      .cls-7 {
        opacity: 0.05;
      }

      .cls-10, .cls-8, .cls-9 {
        fill: #fff;
      }

      .cls-9 {
        font-size: 100px;
        font-family: Now-Black, Now;
        font-weight: 800;
      }

      .cls-10 {
        font-size: 50px;
        font-family: Now-Bold, Now;
        font-weight: 700;
      }

      .cls-11 {
        fill: #e6e6e6;
        font-size: 20px;
        font-family: Now-Regular, Now;
      }
    </style>
    <linearGradient id="linear-gradient" x1="0.5" y1="1" x2="0.5" gradientUnits="objectBoundingBox">
      <stop offset="0" stop-color="gray" stop-opacity="0.251"/>
      <stop offset="0.54" stop-color="gray" stop-opacity="0.122"/>
      <stop offset="1" stop-color="gray" stop-opacity="0.102"/>
    </linearGradient>
    <clipPath id="clip-Omar_Dsoky_-_ui_-_00459_2">
      <rect width="1200" height="900"/>
    </clipPath>
  </defs>
  <g id="Omar_Dsoky_-_ui_-_00459_2" data-name="Omar Dsoky - ui - 00459 – 2" class="cls-1">
    <rect class="cls-8" width="1200" height="900"/>
    <text id="_08" data-name="08" class="cls-2" transform="translate(789 901)"><tspan x="0" y="0">08</tspan></text>
    <path id="Path_3684" data-name="Path 3684" class="cls-3" d="M1641.194,419.355c-5.882-72.866-39.026-143.086-91.041-184.214-55.674-44.031-126-52.257-189.355-78.627-65.427-27.308-123.626-74.257-188.417-103.531a385.272,385.272,0,0,0-332.3,7.56c-70.522,35.594-141.982,118.8-220.518,125.062-55.946,4.461-168.02-51.591-211.688,1.436-7.969,9.677-11.053,23.286-14.485,36.093-27.671,103.107-95.819,185.983-173.418,245.316-32.872,25.1-72.881,58.759-65.7,103.742,3.871,24.193,20.866,41.944,33.507,61.631,26.476,41.2,35.065,97.225,22.439,146.549-.257.983-.529,1.966-.8,3.024L176.39,800.182c-17.479,8.876-36.289,19.264-43.472,37.514-7.379,18.931.378,40.357,10.766,57.836,7.439,12.5,16.33,24.45,22.575,37.469a100.9,100.9,0,0,0,1.905,12.7,97.95,97.95,0,0,0,6.048,18.356c.559,20.519-7.212,41.264-18.145,58.97-13.609,22.091-31.753,40.931-47.04,61.843-21.244,28.865-37.166,62.735-39.45,98.6s10.479,73.7,38.255,96.5c25.493,20.927,59.938,27.217,92.87,28.729q12.52.62,25.025.529c58.728,0,117.154-10.8,175.021-21.592l62.614-11.673c28.729-5.368,58.743-11.416,86.187-21.743a138.1,138.1,0,0,1-3.342,17.086,163.3,163.3,0,0,0-5.9,50.336H848.529a3.519,3.519,0,0,0,.166.771h191l-.333-.771h.333s-2.918-9.193-6.819-25.932a56.847,56.847,0,0,0,12.414-8.165,60.481,60.481,0,0,0,20.776-23.286s9.193-164.572.212-258.033c98.994-65.865,183.987-162.365,287.941-218.659,54.041-29.167,112.86-47.312,162.924-85.023a304.373,304.373,0,0,0,71.611-77.508C1626.648,566.66,1647.076,492.282,1641.194,419.355Z" transform="translate(-255.511 -187.39)"/>
    <path id="Path_3685" data-name="Path 3685" class="cls-4" d="M395.343,207.819c-8.108,10.261-11.231,24.665-14.733,38.263-28.14,109.331-97.45,197.318-176.4,260.1-33.424,26.605-74.136,62.3-66.817,109.988,3.928,25.618,21.216,44.4,34.087,65.345,26.941,43.69,35.664,103.1,22.825,155.388C179.7,896.41,138.91,952,151.545,1012.12c7.792,37.1,34.229,63.405,59.656,86.064q59.483,53,122.767,99.267c28.282,20.686,58.363,40.812,91.314,43.426,29.024,2.318,57.448-9.175,84.989-20.537,24.071-9.866,48.756-20.242,68.19-40.121,12.619-12.974,22.809-29.729,36.895-40.335,33.125-24.944,75.619-9.126,113.571,1.5A380.769,380.769,0,0,0,999.6,1115.547c130.748-64.128,230.406-198.551,358.252-270.72,54.987-31.045,114.8-50.3,165.718-90.273a318.009,318.009,0,0,0,72.843-82.216c38.551-61.909,59.325-140.836,53.346-218.086s-39.7-151.721-92.591-195.328c-56.627-46.682-128.145-55.4-192.6-83.433-66.549-28.956-125.732-78.73-191.635-109.775a377.528,377.528,0,0,0-338,7.958c-71.723,37.737-144.408,125.971-224.3,132.6C553.695,211.107,439.793,151.665,395.343,207.819Z" transform="translate(-264.093 -226.178)"/>
    <path id="Path_3666" data-name="Path 3666" class="cls-4" d="M212.117,407.881C205.942,414.528,176,422.622,176,422.622s5.864-30.456,12.039-37.1a16.427,16.427,0,1,1,24.073,22.357Z" transform="translate(-107.006 215.922)"/>
    <path id="Path_3687" data-name="Path 3687" class="cls-5" d="M526.007,375.622c-19.475,56.95-17.264,76.156-17.264,76.156l4.184,32.28s-84.286,11.955-71.135-27.5c7.538-22.62,5.846-59,3.025-85.918C442.72,350.6,440,335.81,440,335.81l96.839,10.162C532.655,356.846,529.068,366.691,526.007,375.622Z" transform="translate(-213.194 233.805)"/>
    <path id="Path_3688" data-name="Path 3688" class="cls-6" d="M536.839,345.972c-4.184,10.862-7.771,20.719-10.855,29.649a63.962,63.962,0,0,1-81.166-4.979C442.72,350.6,440,335.81,440,335.81Z" transform="translate(-213.194 233.805)"/>
    <ellipse id="Ellipse_848" data-name="Ellipse 848" class="cls-5" cx="63.962" cy="63.962" rx="63.962" ry="63.962" transform="translate(211.288 492.503)"/>
    <path id="Path_3689" data-name="Path 3689" class="cls-5" d="M567.66,545.163,530,529.023l6.576-50.213a81.3,81.3,0,0,1,16.182,3.587c14.5,4.7,34.073,15.309,38.192,38.754a.841.841,0,0,1,0,.12C597.548,559.509,567.66,545.163,567.66,545.163Z" transform="translate(-249.395 176.287)"/>
    <path id="Path_3690" data-name="Path 3690" class="cls-7" d="M604.061,522.942,599,530.534l-20.253,1.351V518.274s-4.854-15.835-4.854-17.03-8.094-15.393-8.094-15.393l-3.264-2.541,3.33.879C580.372,488.887,599.972,499.5,604.061,522.942Z" transform="translate(-262.483 174.477)"/>
    <path id="Path_3691" data-name="Path 3691" class="cls-4" d="M562.54,483.31,574.2,505.129v26.9l16.14,4.184-10.162-28.1S568.518,485.7,562.54,483.31Z" transform="translate(-262.483 174.477)"/>
    <path id="Path_3692" data-name="Path 3692" class="cls-4" d="M383.989,714.053h0a62.976,62.976,0,0,1,2.272-19.4C393.888,666.62,381,575.394,381,575.394s3.587-77.71,51.408-90.861c45.664-12.553,77.71,39.2,80.5,43.894.137.221.2.341.2.341l19.009-8.315.12-.054v.3c.149,4.25,3.419,12.631,7.944,22.321a283.345,283.345,0,0,1,17.861,50.063,289.637,289.637,0,0,1,8.614,57.685c1.859,38.168,9.815,63.286,9.815,63.286Z" transform="translate(-189.463 174.772)"/>
    <path id="Path_3693" data-name="Path 3693" class="cls-6" d="M646.779,618.292l2.582,17.281L601.54,553.679l.1-.042,19.033-8.327.179.353.125.245c.149,4.25,3.419,12.631,7.944,22.321A283.344,283.344,0,0,1,646.779,618.292Z" transform="translate(-278.17 149.538)"/>
    <path id="Path_3694" data-name="Path 3694" class="cls-6" d="M315.812,165.31c-25.2-2.845-51.869,3.336-71.488,19.41s-31.084,42.514-26.679,67.488c3.688,20.779,17.616,40.714,12.649,61.218-4.716,19.475-24.449,30.821-42.31,39.9l-62.4,31.718c-6.737,3.425-14.012,7.424-16.738,14.46-2.845,7.3.143,15.542,4.149,22.291s9.116,13.037,10.987,20.647c2.391,9.7-.992,20-6.211,28.514S105.54,486.737,99.64,494.8c-8.207,11.178-14.323,24.252-15.231,38.072s4.041,28.406,14.741,37.2c9.821,8.07,23.1,10.467,35.8,11.095,25.477,1.255,50.811-3.443,75.917-8.118l24.132-4.5c22.219-4.143,46.3-9.343,60.757-26.726,16.738-20.1,14.807-49.3,11.519-75.235s-6.408-54.7,8.781-75.989c9.929-13.946,26.553-22.6,34.45-37.785,14.454-27.778-6.576-61.995.209-92.559,1.925-8.656,6.037-16.66,8.6-25.148,4.561-15.106,5.045-36.882-2.774-51.265C349.353,170.654,329.37,166.834,315.812,165.31Z" transform="translate(-70.123 302.655)"/>
    <path id="Path_3695" data-name="Path 3695" class="cls-4" d="M313.812,165.31c-25.2-2.845-51.869,3.336-71.488,19.41s-31.084,42.514-26.679,67.488c3.688,20.779,17.616,40.714,12.649,61.218-4.716,19.475-24.449,30.821-42.31,39.9l-62.4,31.718c-6.737,3.425-14.012,7.424-16.738,14.46-2.845,7.3.143,15.542,4.149,22.291s9.116,13.037,10.987,20.647c2.391,9.7-.992,20-6.211,28.514S103.54,486.737,97.64,494.8c-8.207,11.178-14.323,24.252-15.231,38.072s4.041,28.406,14.741,37.2c9.821,8.07,23.1,10.467,35.8,11.095,25.477,1.255,50.811-3.443,75.917-8.118l24.132-4.5c22.219-4.143,46.3-9.343,60.758-26.726,16.738-20.1,14.807-49.3,11.519-75.235s-6.408-54.7,8.781-75.989c9.929-13.946,26.553-22.6,34.45-37.785,14.454-27.778-6.575-61.995.209-92.559,1.925-8.656,6.037-16.66,8.6-25.148,4.561-15.106,5.045-36.882-2.774-51.265C347.353,170.654,327.37,166.834,313.812,165.31Z" transform="translate(-69.318 302.655)"/>
    <path id="Path_3696" data-name="Path 3696" class="cls-6" d="M313.812,165.31c-25.2-2.845-51.869,3.336-71.488,19.41s-31.084,42.514-26.679,67.488c3.688,20.779,17.616,40.714,12.649,61.218-4.716,19.475-24.449,30.821-42.31,39.9l-62.4,31.718c-6.737,3.425-14.012,7.424-16.738,14.46-2.845,7.3.143,15.542,4.149,22.291s9.116,13.037,10.987,20.647c2.391,9.7-.992,20-6.211,28.514S103.54,486.737,97.64,494.8c-8.207,11.178-14.323,24.252-15.231,38.072s4.041,28.406,14.741,37.2c9.821,8.07,23.1,10.467,35.8,11.095,25.477,1.255,50.811-3.443,75.917-8.118l24.132-4.5c22.219-4.143,46.3-9.343,60.758-26.726,16.738-20.1,14.807-49.3,11.519-75.235s-6.408-54.7,8.781-75.989c9.929-13.946,26.553-22.6,34.45-37.785,14.454-27.778-6.575-61.995.209-92.559,1.925-8.656,6.037-16.66,8.6-25.148,4.561-15.106,5.045-36.882-2.774-51.265C347.353,170.654,327.37,166.834,313.812,165.31Z" transform="translate(-69.318 302.655)"/>
    <path id="Path_3697" data-name="Path 3697" class="cls-4" d="M562.54,478.072l44.833,82.307,31.084-15.955S582.864,469.1,575.691,470.3,562.54,478.072,562.54,478.072Z" transform="translate(-262.483 179.715)"/>
    <path id="Path_3698" data-name="Path 3698" class="cls-5" d="M663.12,508.58l-10.162-29.889s-7.173-73.526-35.269-75.917,7.173,78.308,7.173,78.308,12.553,23.313,7.771,40.648S663.12,508.58,663.12,508.58Z" transform="translate(-280.296 206.891)"/>
    <path id="Path_3699" data-name="Path 3699" class="cls-6" d="M451.67,609.357l69.886,84.489s66.95,47.822,85.481,12.553c0,0,7.771-96.241-1.2-118.956s-11.955-37.062-11.955-37.062-37.062,14.346-39.453,4.184l.9,97.138S513.187,496.582,472.538,515.71q-.849.4-1.674.807C436.074,533.817,426.88,579.4,451.67,609.357Z" transform="translate(-212.257 162.101)"/>
    <path id="Path_3700" data-name="Path 3700" class="cls-4" d="M455.67,606.491l69.886,84.489s66.95,47.822,85.481,12.553c0,0,5.38-96.241-3.587-118.957s-9.564-37.062-9.564-37.062-37.062,14.346-39.453,4.184l1.494,120.451s-42.741-178.435-83.389-159.306q-.849.4-1.674.807C440.074,530.951,430.88,576.531,455.67,606.491Z" transform="translate(-213.866 163.174)"/>
    <circle id="Ellipse_851" data-name="Ellipse 851" class="cls-8" cx="4" cy="4" r="4" transform="translate(512.222 149.326)"/>
    <ellipse id="Ellipse_852" data-name="Ellipse 852" class="cls-8" cx="2.391" cy="2.391" rx="2.391" ry="2.391" transform="translate(112.631 544.025)"/>
    <ellipse id="Ellipse_853" data-name="Ellipse 853" class="cls-8" cx="2.391" cy="2.391" rx="2.391" ry="2.391" transform="translate(251.04 716.966)"/>
    <ellipse id="Ellipse_854" data-name="Ellipse 854" class="cls-8" cx="2.391" cy="2.391" rx="2.391" ry="2.391" transform="translate(89.043 606.976)"/>
    <ellipse id="Ellipse_856" data-name="Ellipse 856" class="cls-8" cx="2.391" cy="2.391" rx="2.391" ry="2.391" transform="translate(368.801 561.545)"/>
    <ellipse id="Ellipse_858" data-name="Ellipse 858" class="cls-8" cx="2.391" cy="2.391" rx="2.391" ry="2.391" transform="translate(416.897 708.412)"/>
    <path id="Path_3702" data-name="Path 3702" class="cls-8" d="M420.012,759.112h-2.206V756.9h-.371v2.212H415.23v.365h2.206v2.206h.371v-2.206h2.206Z" transform="translate(-161.799 75.735)"/>
    <path id="Path_3703" data-name="Path 3703" class="cls-8" d="M585.012,646.112H582.8V643.9h-.365v2.212H580.23v.365h2.206v2.206h.365v-2.206h2.212Z" transform="translate(-228.167 121.186)"/>
    <g id="Group_1393" data-name="Group 1393" transform="translate(830.924 -788.716) rotate(41)">
      <ellipse id="Ellipse_897" data-name="Ellipse 897" class="cls-8" cx="2.391" cy="2.391" rx="2.391" ry="2.391" transform="translate(446.897 690.412)"/>
      <path id="Path_3908" data-name="Path 3908" class="cls-8" d="M585.012,646.112H582.8V643.9h-.365v2.212H580.23v.365h2.206v2.206h.365v-2.206h2.212Z" transform="translate(-198.167 103.186)"/>
    </g>
    <g id="Group_1394" data-name="Group 1394" transform="translate(967.924 -688.716) rotate(41)">
      <ellipse id="Ellipse_897-2" data-name="Ellipse 897" class="cls-8" cx="2.391" cy="2.391" rx="2.391" ry="2.391" transform="translate(446.897 690.412)"/>
      <path id="Path_3908-2" data-name="Path 3908" class="cls-8" d="M585.012,646.112H582.8V643.9h-.365v2.212H580.23v.365h2.206v2.206h.365v-2.206h2.212Z" transform="translate(-198.167 103.186)"/>
    </g>
    <g id="Group_1395" data-name="Group 1395" transform="translate(1105.924 -588.716) rotate(41)">
      <ellipse id="Ellipse_897-3" data-name="Ellipse 897" class="cls-8" cx="2.391" cy="2.391" rx="2.391" ry="2.391" transform="translate(446.897 690.412)"/>
      <path id="Path_3908-3" data-name="Path 3908" class="cls-8" d="M585.012,646.112H582.8V643.9h-.365v2.212H580.23v.365h2.206v2.206h.365v-2.206h2.212Z" transform="translate(-198.167 103.186)"/>
    </g>
    <g id="Group_1396" data-name="Group 1396" transform="translate(1242.924 -455.716) rotate(41)">
      <ellipse id="Ellipse_897-4" data-name="Ellipse 897" class="cls-8" cx="2.391" cy="2.391" rx="2.391" ry="2.391" transform="translate(446.897 690.412)"/>
      <path id="Path_3908-4" data-name="Path 3908" class="cls-8" d="M585.012,646.112H582.8V643.9h-.365v2.212H580.23v.365h2.206v2.206h.365v-2.206h2.212Z" transform="translate(-198.167 103.186)"/>
    </g>
    <g id="Group_1397" data-name="Group 1397" transform="translate(1380.924 -322.716) rotate(41)">
      <ellipse id="Ellipse_897-5" data-name="Ellipse 897" class="cls-8" cx="2.391" cy="2.391" rx="2.391" ry="2.391" transform="translate(446.897 690.412)"/>
      <path id="Path_3908-5" data-name="Path 3908" class="cls-8" d="M585.012,646.112H582.8V643.9h-.365v2.212H580.23v.365h2.206v2.206h.365v-2.206h2.212Z" transform="translate(-198.167 103.186)"/>
    </g>
    <g id="Group_1403" data-name="Group 1403" transform="translate(383.924 -721.716) rotate(41)">
      <ellipse id="Ellipse_897-6" data-name="Ellipse 897" class="cls-8" cx="2.391" cy="2.391" rx="2.391" ry="2.391" transform="translate(446.897 690.412)"/>
      <path id="Path_3908-6" data-name="Path 3908" class="cls-8" d="M585.012,646.112H582.8V643.9h-.365v2.212H580.23v.365h2.206v2.206h.365v-2.206h2.212Z" transform="translate(-198.167 103.186)"/>
    </g>
    <g id="Group_1404" data-name="Group 1404" transform="translate(452.924 -622.715) rotate(41)">
      <ellipse id="Ellipse_897-7" data-name="Ellipse 897" class="cls-8" cx="2.391" cy="2.391" rx="2.391" ry="2.391" transform="translate(446.897 690.412)"/>
      <path id="Path_3908-7" data-name="Path 3908" class="cls-8" d="M585.012,646.112H582.8V643.9h-.365v2.212H580.23v.365h2.206v2.206h.365v-2.206h2.212Z" transform="translate(-198.167 103.186)"/>
    </g>
    <g id="Group_1405" data-name="Group 1405" transform="translate(555.924 -488.716) rotate(41)">
      <ellipse id="Ellipse_897-8" data-name="Ellipse 897" class="cls-8" cx="2.391" cy="2.391" rx="2.391" ry="2.391" transform="translate(446.897 690.412)"/>
      <path id="Path_3908-8" data-name="Path 3908" class="cls-8" d="M585.012,646.112H582.8V643.9h-.365v2.212H580.23v.365h2.206v2.206h.365v-2.206h2.212Z" transform="translate(-198.167 103.186)"/>
    </g>
    <g id="Group_1406" data-name="Group 1406" transform="translate(658.924 -355.716) rotate(41)">
      <ellipse id="Ellipse_897-9" data-name="Ellipse 897" class="cls-8" cx="2.391" cy="2.391" rx="2.391" ry="2.391" transform="translate(446.897 690.412)"/>
      <path id="Path_3908-9" data-name="Path 3908" class="cls-8" d="M585.012,646.112H582.8V643.9h-.365v2.212H580.23v.365h2.206v2.206h.365v-2.206h2.212Z" transform="translate(-198.167 103.186)"/>
    </g>
    <g id="Group_1407" data-name="Group 1407" transform="translate(796.924 -222.715) rotate(41)">
      <ellipse id="Ellipse_897-10" data-name="Ellipse 897" class="cls-8" cx="2.391" cy="2.391" rx="2.391" ry="2.391" transform="translate(446.897 690.412)"/>
      <path id="Path_3908-10" data-name="Path 3908" class="cls-8" d="M585.012,646.112H582.8V643.9h-.365v2.212H580.23v.365h2.206v2.206h.365v-2.206h2.212Z" transform="translate(-198.167 103.186)"/>
    </g>
    <g id="Group_1408" data-name="Group 1408" transform="translate(933.924 -89.716) rotate(41)">
      <ellipse id="Ellipse_897-11" data-name="Ellipse 897" class="cls-8" cx="2.391" cy="2.391" rx="2.391" ry="2.391" transform="translate(446.897 690.412)"/>
      <path id="Path_3908-11" data-name="Path 3908" class="cls-8" d="M585.012,646.112H582.8V643.9h-.365v2.212H580.23v.365h2.206v2.206h.365v-2.206h2.212Z" transform="translate(-198.167 103.186)"/>
    </g>
    <g id="Group_1409" data-name="Group 1409" transform="translate(1070.924 10.285) rotate(41)">
      <ellipse id="Ellipse_897-12" data-name="Ellipse 897" class="cls-8" cx="2.391" cy="2.391" rx="2.391" ry="2.391" transform="translate(446.897 690.412)"/>
      <path id="Path_3908-12" data-name="Path 3908" class="cls-8" d="M585.012,646.112H582.8V643.9h-.365v2.212H580.23v.365h2.206v2.206h.365v-2.206h2.212Z" transform="translate(-198.167 103.186)"/>
    </g>
    <g id="Group_1414" data-name="Group 1414" transform="translate(212.924 -522.716) rotate(41)">
      <ellipse id="Ellipse_897-13" data-name="Ellipse 897" class="cls-8" cx="2.391" cy="2.391" rx="2.391" ry="2.391" transform="translate(446.897 690.412)"/>
      <path id="Path_3908-13" data-name="Path 3908" class="cls-8" d="M585.012,646.112H582.8V643.9h-.365v2.212H580.23v.365h2.206v2.206h.365v-2.206h2.212Z" transform="translate(-198.167 103.186)"/>
    </g>
    <g id="Group_1415" data-name="Group 1415" transform="translate(246.924 -388.716) rotate(41)">
      <ellipse id="Ellipse_897-14" data-name="Ellipse 897" class="cls-8" cx="2.391" cy="2.391" rx="2.391" ry="2.391" transform="translate(446.897 690.412)"/>
      <path id="Path_3908-14" data-name="Path 3908" class="cls-8" d="M585.012,646.112H582.8V643.9h-.365v2.212H580.23v.365h2.206v2.206h.365v-2.206h2.212Z" transform="translate(-198.167 103.186)"/>
    </g>
    <g id="Group_1416" data-name="Group 1416" transform="translate(280.924 -255.715) rotate(41)">
      <ellipse id="Ellipse_897-15" data-name="Ellipse 897" class="cls-8" cx="2.391" cy="2.391" rx="2.391" ry="2.391" transform="translate(446.897 690.412)"/>
      <path id="Path_3908-15" data-name="Path 3908" class="cls-8" d="M585.012,646.112H582.8V643.9h-.365v2.212H580.23v.365h2.206v2.206h.365v-2.206h2.212Z" transform="translate(-198.167 103.186)"/>
    </g>
    <g id="Group_1417" data-name="Group 1417" transform="translate(349.924 -122.716) rotate(41)">
      <ellipse id="Ellipse_897-16" data-name="Ellipse 897" class="cls-8" cx="2.391" cy="2.391" rx="2.391" ry="2.391" transform="translate(446.897 690.412)"/>
      <path id="Path_3908-16" data-name="Path 3908" class="cls-8" d="M585.012,646.112H582.8V643.9h-.365v2.212H580.23v.365h2.206v2.206h.365v-2.206h2.212Z" transform="translate(-198.167 103.186)"/>
    </g>
    <g id="Group_1418" data-name="Group 1418" transform="translate(418.924 -22.716) rotate(41)">
      <ellipse id="Ellipse_897-17" data-name="Ellipse 897" class="cls-8" cx="2.391" cy="2.391" rx="2.391" ry="2.391" transform="translate(446.897 690.412)"/>
      <path id="Path_3908-17" data-name="Path 3908" class="cls-8" d="M585.012,646.112H582.8V643.9h-.365v2.212H580.23v.365h2.206v2.206h.365v-2.206h2.212Z" transform="translate(-198.167 103.186)"/>
    </g>
    <g id="Group_1419" data-name="Group 1419" transform="translate(521.924 77.284) rotate(41)">
      <ellipse id="Ellipse_897-18" data-name="Ellipse 897" class="cls-8" cx="2.391" cy="2.391" rx="2.391" ry="2.391" transform="translate(446.897 690.412)"/>
      <path id="Path_3908-18" data-name="Path 3908" class="cls-8" d="M585.012,646.112H582.8V643.9h-.365v2.212H580.23v.365h2.206v2.206h.365v-2.206h2.212Z" transform="translate(-198.167 103.186)"/>
    </g>
    <path id="Path_3704" data-name="Path 3704" class="cls-8" d="M834.23,417.6h-3.7v-3.7h-.61v3.7h-3.69v.61h3.69v3.69h.61v-3.69h3.7Z" transform="translate(-0.008 37.926)"/>
    <path id="Path_3705" data-name="Path 3705" class="cls-8" d="M663.012,474.112H660.8V471.9h-.365v2.212H658.23v.365h2.206v2.206h.365v-2.206h2.212Z" transform="translate(-259.541 190.37)"/>
    <path id="Path_3706" data-name="Path 3706" class="cls-8" d="M188.012,412.112H185.8V409.9h-.365v2.212H183.23v.365h2.206v2.206h.365v-2.206h2.212Z" transform="translate(-68.482 215.308)"/>
    <path id="Path_3707" data-name="Path 3707" class="cls-8" d="M589.012,177.112H586.8V174.9h-.365v2.212H584.23v.365h2.206v2.206h.365v-2.206h2.212Z" transform="translate(-229.776 309.832)"/>
    <path id="Path_3708" data-name="Path 3708" class="cls-8" d="M269.23,143.6h-3.69v-3.7h-.62v3.7h-3.69v.61h3.69v3.69h.62v-3.69h3.69Z" transform="translate(-0.008 37.926)"/>
    <g id="Group_1422" data-name="Group 1422" transform="translate(899.924 -454.716) rotate(41)">
      <ellipse id="Ellipse_897-19" data-name="Ellipse 897" class="cls-8" cx="2.391" cy="2.391" rx="2.391" ry="2.391" transform="translate(446.897 690.412)"/>
      <path id="Path_3908-19" data-name="Path 3908" class="cls-8" d="M585.012,646.112H582.8V643.9h-.365v2.212H580.23v.365h2.206v2.206h.365v-2.206h2.212Z" transform="translate(-198.167 103.186)"/>
    </g>
    <g id="Group_1423" data-name="Group 1423" transform="translate(1036.924 -387.716) rotate(41)">
      <ellipse id="Ellipse_897-20" data-name="Ellipse 897" class="cls-8" cx="2.391" cy="2.391" rx="2.391" ry="2.391" transform="translate(446.897 690.412)"/>
      <path id="Path_3908-20" data-name="Path 3908" class="cls-8" d="M585.012,646.112H582.8V643.9h-.365v2.212H580.23v.365h2.206v2.206h.365v-2.206h2.212Z" transform="translate(-198.167 103.186)"/>
    </g>
    <g id="Group_1424" data-name="Group 1424" transform="translate(1174.924 -354.716) rotate(41)">
      <ellipse id="Ellipse_897-21" data-name="Ellipse 897" class="cls-8" cx="2.391" cy="2.391" rx="2.391" ry="2.391" transform="translate(446.897 690.412)"/>
      <path id="Path_3908-21" data-name="Path 3908" class="cls-8" d="M585.012,646.112H582.8V643.9h-.365v2.212H580.23v.365h2.206v2.206h.365v-2.206h2.212Z" transform="translate(-198.167 103.186)"/>
    </g>
    <g id="Group_1425" data-name="Group 1425" transform="translate(1311.924 -321.716) rotate(41)">
      <ellipse id="Ellipse_897-22" data-name="Ellipse 897" class="cls-8" cx="2.391" cy="2.391" rx="2.391" ry="2.391" transform="translate(446.897 690.412)"/>
      <path id="Path_3908-22" data-name="Path 3908" class="cls-8" d="M585.012,646.112H582.8V643.9h-.365v2.212H580.23v.365h2.206v2.206h.365v-2.206h2.212Z" transform="translate(-198.167 103.186)"/>
    </g>
    <g id="Group_1421" data-name="Group 1421" transform="translate(761.924 -520.716) rotate(41)">
      <ellipse id="Ellipse_897-23" data-name="Ellipse 897" class="cls-8" cx="2.391" cy="2.391" rx="2.391" ry="2.391" transform="translate(446.897 690.412)"/>
      <path id="Path_3908-23" data-name="Path 3908" class="cls-8" d="M585.012,646.112H582.8V643.9h-.365v2.212H580.23v.365h2.206v2.206h.365v-2.206h2.212Z" transform="translate(-198.167 103.186)"/>
    </g>
    <g id="Group_1410" data-name="Group 1410" transform="translate(1208.924 -654.716) rotate(41)">
      <ellipse id="Ellipse_897-24" data-name="Ellipse 897" class="cls-8" cx="2.391" cy="2.391" rx="2.391" ry="2.391" transform="translate(446.897 690.412)"/>
      <path id="Path_3908-24" data-name="Path 3908" class="cls-8" d="M585.012,646.112H582.8V643.9h-.365v2.212H580.23v.365h2.206v2.206h.365v-2.206h2.212Z" transform="translate(-198.167 103.186)"/>
    </g>
    <g id="Group_1420" data-name="Group 1420" transform="translate(624.924 -587.716) rotate(41)">
      <ellipse id="Ellipse_897-25" data-name="Ellipse 897" class="cls-8" cx="2.391" cy="2.391" rx="2.391" ry="2.391" transform="translate(446.897 690.412)"/>
      <path id="Path_3908-25" data-name="Path 3908" class="cls-8" d="M585.012,646.112H582.8V643.9h-.365v2.212H580.23v.365h2.206v2.206h.365v-2.206h2.212Z" transform="translate(-198.167 103.186)"/>
    </g>
    <g id="Group_1411" data-name="Group 1411" transform="translate(1345.924 -554.716) rotate(41)">
      <ellipse id="Ellipse_897-26" data-name="Ellipse 897" class="cls-8" cx="2.391" cy="2.391" rx="2.391" ry="2.391" transform="translate(446.897 690.412)"/>
      <path id="Path_3908-26" data-name="Path 3908" class="cls-8" d="M585.012,646.112H582.8V643.9h-.365v2.212H580.23v.365h2.206v2.206h.365v-2.206h2.212Z" transform="translate(-198.167 103.186)"/>
    </g>
    <text id="Elzero_Practic" data-name="Elzero Practic" class="cls-9" transform="translate(397 245)"><tspan x="0" y="0">Elzero Practic</tspan></text>
    <text id="Practice_makes_you_better" data-name="Practice makes you better" class="cls-10" transform="translate(397 314)"><tspan x="0" y="0">Practice makes you better</tspan></text>
    <text id="Elzero_Web_School" data-name="Elzero Web School" class="cls-11" transform="translate(24.5 12.5) rotate(90)"><tspan x="0" y="18">Elzero Web School</tspan></text>
  </g>
</svg>
